<svg xmlns="http://www.w3.org/2000/svg" width="16" height="16">
  <path d="M 8 0 L 1 2 C 1 8.075132 3 15 8 16 C 8.7326753 15.853465 9.3930133 15.567163 10 15.1875 L 10 12 L 8.5 9 L 8 8 L 7.5 7 L 5.5 3 L 3.5 7 L 2.7929688 8.4121094 C 2.3151285 6.6179597 2.0730547 4.6351912 2.0214844 2.7070312 L 8 1 L 13.445312 2.5546875 L 8.6660156 7.3339844 L 9 8 L 12 8 L 12.5 7 L 13.5 7 L 12.5 9 L 12 10 L 13.726562 10 C 14.602799 7.5604439 15 4.6975972 15 2 L 8 0 z M 5.5 5 L 6.5 7 L 4.5 7 L 5.5 5 z M 4 8 L 7 8 L 7.3339844 8.6660156 L 4.171875 11.828125 C 3.9340072 11.421525 3.7094037 10.992134 3.5078125 10.523438 C 3.3006371 10.041755 3.1217134 9.5288611 2.9609375 9 L 3.5 9 L 4 8 z M 9.5 9 L 10 10 L 11 10 L 11.5 9 L 9.5 9 z M 11 11 L 11 16 L 16 16 L 16 11 L 11 11 z M 12 12 L 13 12 L 13 13 L 14 13 L 14 12 L 15 12 L 15 14 L 14 14 L 14 15 L 13 15 L 13 14 L 12 14 L 12 12 z " fill="#c0bfbc" />
</svg>
